<svg xmlns="http://www.w3.org/2000/svg"  viewBox="0 0 100 100" width="100px" height="100px"><path fill="#6b96d6" d="m78.28,28.07H21.72c-1.39.13,3.27,50.77,4.78,52.33,1.58,2.59,11.5,4.59,23.5,4.59s21.92-2,23.5-4.59c1.5-1.55,6.17-52.2,4.78-52.33Z"/><path fill="#6b96d6" d="m77.62,25.84l-15.75-5.92h-.09l-1.71-3.94c-.79-1.81-2.64-2.98-4.71-2.98h-10.7c-2.08,0-3.93,1.17-4.71,2.98l-1.71,3.94h-.09l-15.75,5.92c-1.43.54-2.38,1.91-2.38,3.43v2.29c0,1.1.9,2,2,2h56c1.1,0,2-.9,2-2v-2.29c0-1.53-.95-2.9-2.38-3.43Zm-34.02-8.25c.15-.34.58-.57,1.05-.57h10.7c.47,0,.9.24,1.05.57l1.02,2.34h-14.83l1.02-2.34Z"/><path fill="#4a254b" d="m49.99,35.93c-8.5,0-17-.34-25.45-1.01-.27-.02-.48-.26-.46-.54.02-.27.25-.48.54-.46,17.95,1.44,36.15,1.34,54.08-.28.28-.02.52.18.54.45s-.18.52-.45.54c-9.55.86-19.18,1.3-28.8,1.3Z"/><path fill="#4a254b" d="m50,72.56c2.57,0,4.68-1.94,4.97-4.43.03-.3-.19-.57-.49-.57-1.73,0-7.22,0-8.95,0-.3,0-.53.27-.49.57.28,2.49,2.4,4.43,4.97,4.43Z"/><circle cx="37.5" cy="61.06" r="6.56" fill="#fff"/><circle cx="37.5" cy="61.06" r="2.98" fill="#4a254b"/><circle cx="62.5" cy="61.06" r="6.56" fill="#fff"/><circle cx="62.5" cy="61.06" r="2.98" fill="#4a254b"/></svg>