<?xml version="1.0" encoding="UTF-8"?>
<svg xmlns="http://www.w3.org/2000/svg" xmlns:xlink="http://www.w3.org/1999/xlink" width="3873" height="3873" viewBox="0 0 3873 3873">
<defs>
<clipPath id="clip-0">

</clipPath>
<clipPath id="clip-1">
<path clip-rule="evenodd" d="M 3827.601562 1936.5 C 3827.601562 1414.300781 3616 941.5 3273.699219 599.300781 C 2931.398438 257.101562 2458.699219 45.398438 1936.5 45.398438 C 1414.300781 45.398438 941.5 257 599.300781 599.300781 C 257.101562 941.601562 45.402344 1414.300781 45.402344 1936.5 C 45.402344 2458.699219 257 2931.5 599.300781 3273.699219 C 941.601562 3615.898438 1414.300781 3827.601562 1936.5 3827.601562 C 2458.699219 3827.601562 2931.5 3616 3273.699219 3273.699219 C 3616 2931.5 3827.601562 2458.800781 3827.601562 1936.5 "/>
</clipPath>
<linearGradient id="linear-pattern-0" gradientUnits="userSpaceOnUse" x1="-0.19444" y1="0" x2="1.194438" y2="0" gradientTransform="matrix(2723.22, 2723.19, 2723.19, -2723.22, 574.889, 574.91)">
<stop offset="0" stop-color="rgb(93.72406%, 15.852356%, 60.992432%)" stop-opacity="1"/>
<stop offset="0.125" stop-color="rgb(93.72406%, 15.852356%, 60.992432%)" stop-opacity="1"/>
<stop offset="0.140625" stop-color="rgb(93.72406%, 15.841675%, 60.987854%)" stop-opacity="1"/>
<stop offset="0.148438" stop-color="rgb(93.713379%, 15.696716%, 60.923767%)" stop-opacity="1"/>
<stop offset="0.15625" stop-color="rgb(93.693542%, 15.437317%, 60.765076%)" stop-opacity="1"/>
<stop offset="0.164062" stop-color="rgb(93.673706%, 15.187073%, 60.539246%)" stop-opacity="1"/>
<stop offset="0.171875" stop-color="rgb(93.655396%, 14.944458%, 60.290527%)" stop-opacity="1"/>
<stop offset="0.175781" stop-color="rgb(93.635559%, 14.707947%, 59.994507%)" stop-opacity="1"/>
<stop offset="0.179687" stop-color="rgb(93.626404%, 14.595032%, 59.825134%)" stop-opacity="1"/>
<stop offset="0.183594" stop-color="rgb(93.615723%, 14.451599%, 59.637451%)" stop-opacity="1"/>
<stop offset="0.1875" stop-color="rgb(93.603516%, 14.308167%, 59.449768%)" stop-opacity="1"/>
<stop offset="0.191406" stop-color="rgb(93.585205%, 14.054871%, 59.269714%)" stop-opacity="1"/>
<stop offset="0.195312" stop-color="rgb(93.565369%, 13.798523%, 59.089661%)" stop-opacity="1"/>
<stop offset="0.203125" stop-color="rgb(93.553162%, 13.647461%, 58.953857%)" stop-opacity="1"/>
<stop offset="0.210937" stop-color="rgb(93.534851%, 13.414001%, 58.712769%)" stop-opacity="1"/>
<stop offset="0.21875" stop-color="rgb(93.528748%, 13.345337%, 58.543396%)" stop-opacity="1"/>
<stop offset="0.226562" stop-color="rgb(93.434143%, 13.270569%, 58.36792%)" stop-opacity="1"/>
<stop offset="0.234375" stop-color="rgb(93.186951%, 13.090515%, 58.114624%)" stop-opacity="1"/>
<stop offset="0.238281" stop-color="rgb(92.819214%, 12.922668%, 57.792664%)" stop-opacity="1"/>
<stop offset="0.242188" stop-color="rgb(92.602539%, 12.8479%, 57.61261%)" stop-opacity="1"/>
<stop offset="0.25" stop-color="rgb(92.480469%, 12.747192%, 57.49054%)" stop-opacity="1"/>
<stop offset="0.257812" stop-color="rgb(92.199707%, 12.556458%, 57.225037%)" stop-opacity="1"/>
<stop offset="0.261719" stop-color="rgb(91.824341%, 12.394714%, 56.903076%)" stop-opacity="1"/>
<stop offset="0.265625" stop-color="rgb(91.609192%, 12.322998%, 56.7276%)" stop-opacity="1"/>
<stop offset="0.269531" stop-color="rgb(91.394043%, 12.237549%, 56.614685%)" stop-opacity="1"/>
<stop offset="0.273437" stop-color="rgb(91.177368%, 12.153625%, 56.50177%)" stop-opacity="1"/>
<stop offset="0.277344" stop-color="rgb(91.018677%, 12.06665%, 56.355286%)" stop-opacity="1"/>
<stop offset="0.28125" stop-color="rgb(90.856934%, 11.981201%, 56.208801%)" stop-opacity="1"/>
<stop offset="0.285156" stop-color="rgb(90.740967%, 11.894226%, 56.033325%)" stop-opacity="1"/>
<stop offset="0.289062" stop-color="rgb(90.621948%, 11.807251%, 55.856323%)" stop-opacity="1"/>
<stop offset="0.292969" stop-color="rgb(90.409851%, 11.737061%, 55.683899%)" stop-opacity="1"/>
<stop offset="0.296875" stop-color="rgb(90.194702%, 11.66687%, 55.511475%)" stop-opacity="1"/>
<stop offset="0.304688" stop-color="rgb(90.04364%, 11.578369%, 55.375671%)" stop-opacity="1"/>
<stop offset="0.3125" stop-color="rgb(89.76593%, 11.39679%, 55.119324%)" stop-opacity="1"/>
<stop offset="0.316406" stop-color="rgb(89.430237%, 11.235046%, 54.832458%)" stop-opacity="1"/>
<stop offset="0.320312" stop-color="rgb(89.216614%, 11.166382%, 54.663086%)" stop-opacity="1"/>
<stop offset="0.324219" stop-color="rgb(89.004517%, 11.090088%, 54.534912%)" stop-opacity="1"/>
<stop offset="0.328125" stop-color="rgb(88.790894%, 11.01532%, 54.408264%)" stop-opacity="1"/>
<stop offset="0.332031" stop-color="rgb(88.600159%, 10.934448%, 54.289246%)" stop-opacity="1"/>
<stop offset="0.335937" stop-color="rgb(88.409424%, 10.853577%, 54.168701%)" stop-opacity="1"/>
<stop offset="0.339844" stop-color="rgb(88.302612%, 10.769653%, 53.999329%)" stop-opacity="1"/>
<stop offset="0.34375" stop-color="rgb(88.192749%, 10.68573%, 53.829956%)" stop-opacity="1"/>
<stop offset="0.347656" stop-color="rgb(88.008118%, 10.61554%, 53.663635%)" stop-opacity="1"/>
<stop offset="0.351562" stop-color="rgb(87.82196%, 10.545349%, 53.497314%)" stop-opacity="1"/>
<stop offset="0.355469" stop-color="rgb(87.641907%, 10.475159%, 53.33252%)" stop-opacity="1"/>
<stop offset="0.359375" stop-color="rgb(87.458801%, 10.404968%, 53.166199%)" stop-opacity="1"/>
<stop offset="0.363281" stop-color="rgb(87.35199%, 10.322571%, 53.001404%)" stop-opacity="1"/>
<stop offset="0.367188" stop-color="rgb(87.245178%, 10.238647%, 52.833557%)" stop-opacity="1"/>
<stop offset="0.371094" stop-color="rgb(87.052917%, 10.171509%, 52.670288%)" stop-opacity="1"/>
<stop offset="0.375" stop-color="rgb(86.860657%, 10.105896%, 52.508545%)" stop-opacity="1"/>
<stop offset="0.378906" stop-color="rgb(86.651611%, 10.041809%, 52.346802%)" stop-opacity="1"/>
<stop offset="0.382812" stop-color="rgb(86.442566%, 9.979248%, 52.186584%)" stop-opacity="1"/>
<stop offset="0.386719" stop-color="rgb(86.233521%, 9.918213%, 52.026367%)" stop-opacity="1"/>
<stop offset="0.390625" stop-color="rgb(86.024475%, 9.855652%, 51.867676%)" stop-opacity="1"/>
<stop offset="0.394531" stop-color="rgb(85.81543%, 9.794617%, 51.708984%)" stop-opacity="1"/>
<stop offset="0.398437" stop-color="rgb(85.606384%, 9.732056%, 51.550293%)" stop-opacity="1"/>
<stop offset="0.402344" stop-color="rgb(85.400391%, 9.671021%, 51.393127%)" stop-opacity="1"/>
<stop offset="0.40625" stop-color="rgb(85.191345%, 9.609985%, 51.234436%)" stop-opacity="1"/>
<stop offset="0.410156" stop-color="rgb(84.983826%, 9.552002%, 51.078796%)" stop-opacity="1"/>
<stop offset="0.414062" stop-color="rgb(84.776306%, 9.490967%, 50.921631%)" stop-opacity="1"/>
<stop offset="0.417969" stop-color="rgb(84.568787%, 9.431458%, 50.765991%)" stop-opacity="1"/>
<stop offset="0.421875" stop-color="rgb(84.362793%, 9.371948%, 50.611877%)" stop-opacity="1"/>
<stop offset="0.425781" stop-color="rgb(84.159851%, 9.382629%, 50.45166%)" stop-opacity="1"/>
<stop offset="0.429688" stop-color="rgb(83.955383%, 9.391785%, 50.289917%)" stop-opacity="1"/>
<stop offset="0.433594" stop-color="rgb(83.755493%, 9.461975%, 50.126648%)" stop-opacity="1"/>
<stop offset="0.4375" stop-color="rgb(83.555603%, 9.532166%, 49.960327%)" stop-opacity="1"/>
<stop offset="0.441406" stop-color="rgb(83.349609%, 9.472656%, 49.807739%)" stop-opacity="1"/>
<stop offset="0.445312" stop-color="rgb(83.143616%, 9.414673%, 49.655151%)" stop-opacity="1"/>
<stop offset="0.449219" stop-color="rgb(82.939148%, 9.356689%, 49.504089%)" stop-opacity="1"/>
<stop offset="0.453125" stop-color="rgb(82.733154%, 9.300232%, 49.353027%)" stop-opacity="1"/>
<stop offset="0.457031" stop-color="rgb(82.527161%, 9.243774%, 49.195862%)" stop-opacity="1"/>
<stop offset="0.460937" stop-color="rgb(82.322693%, 9.188843%, 49.038696%)" stop-opacity="1"/>
<stop offset="0.464844" stop-color="rgb(82.119751%, 9.146118%, 48.832703%)" stop-opacity="1"/>
<stop offset="0.46875" stop-color="rgb(81.916809%, 9.101868%, 48.626709%)" stop-opacity="1"/>
<stop offset="0.472656" stop-color="rgb(81.646729%, 9.063721%, 48.461914%)" stop-opacity="1"/>
<stop offset="0.476562" stop-color="rgb(81.376648%, 9.025574%, 48.297119%)" stop-opacity="1"/>
<stop offset="0.480469" stop-color="rgb(81.111145%, 8.982849%, 48.153687%)" stop-opacity="1"/>
<stop offset="0.484375" stop-color="rgb(80.845642%, 8.94165%, 48.008728%)" stop-opacity="1"/>
<stop offset="0.488281" stop-color="rgb(80.744934%, 8.866882%, 47.859192%)" stop-opacity="1"/>
<stop offset="0.492187" stop-color="rgb(80.641174%, 8.79364%, 47.70813%)" stop-opacity="1"/>
<stop offset="0.496094" stop-color="rgb(80.467224%, 8.743286%, 47.520447%)" stop-opacity="1"/>
<stop offset="0.5" stop-color="rgb(80.290222%, 8.692932%, 47.33429%)" stop-opacity="1"/>
<stop offset="0.503906" stop-color="rgb(80.090332%, 8.677673%, 47.175598%)" stop-opacity="1"/>
<stop offset="0.507812" stop-color="rgb(79.890442%, 8.662415%, 47.016907%)" stop-opacity="1"/>
<stop offset="0.511719" stop-color="rgb(79.692078%, 8.71582%, 46.97113%)" stop-opacity="1"/>
<stop offset="0.515625" stop-color="rgb(79.492188%, 8.7677%, 46.925354%)" stop-opacity="1"/>
<stop offset="0.519531" stop-color="rgb(79.290771%, 8.746338%, 46.755981%)" stop-opacity="1"/>
<stop offset="0.523438" stop-color="rgb(79.090881%, 8.72345%, 46.588135%)" stop-opacity="1"/>
<stop offset="0.527344" stop-color="rgb(78.858948%, 8.636475%, 46.376038%)" stop-opacity="1"/>
<stop offset="0.53125" stop-color="rgb(78.627014%, 8.5495%, 46.16394%)" stop-opacity="1"/>
<stop offset="0.535156" stop-color="rgb(78.334045%, 8.372498%, 45.922852%)" stop-opacity="1"/>
<stop offset="0.539062" stop-color="rgb(78.041077%, 8.195496%, 45.681763%)" stop-opacity="1"/>
<stop offset="0.542969" stop-color="rgb(77.91748%, 8.113098%, 45.527649%)" stop-opacity="1"/>
<stop offset="0.546875" stop-color="rgb(77.793884%, 8.029175%, 45.372009%)" stop-opacity="1"/>
<stop offset="0.550781" stop-color="rgb(77.653503%, 7.96814%, 45.231628%)" stop-opacity="1"/>
<stop offset="0.554688" stop-color="rgb(77.511597%, 7.907104%, 45.091248%)" stop-opacity="1"/>
<stop offset="0.558594" stop-color="rgb(77.313232%, 7.859802%, 44.955444%)" stop-opacity="1"/>
<stop offset="0.5625" stop-color="rgb(77.114868%, 7.810974%, 44.819641%)" stop-opacity="1"/>
<stop offset="0.566406" stop-color="rgb(76.832581%, 7.74231%, 44.67926%)" stop-opacity="1"/>
<stop offset="0.570312" stop-color="rgb(76.548767%, 7.673645%, 44.537354%)" stop-opacity="1"/>
<stop offset="0.574219" stop-color="rgb(76.353455%, 7.60498%, 44.396973%)" stop-opacity="1"/>
<stop offset="0.578125" stop-color="rgb(76.159668%, 7.536316%, 44.256592%)" stop-opacity="1"/>
<stop offset="0.582031" stop-color="rgb(76.05896%, 7.469177%, 44.116211%)" stop-opacity="1"/>
<stop offset="0.585938" stop-color="rgb(75.958252%, 7.400513%, 43.97583%)" stop-opacity="1"/>
<stop offset="0.589844" stop-color="rgb(75.773621%, 7.322693%, 43.778992%)" stop-opacity="1"/>
<stop offset="0.59375" stop-color="rgb(75.587463%, 7.246399%, 43.582153%)" stop-opacity="1"/>
<stop offset="0.597656" stop-color="rgb(75.398254%, 7.192993%, 43.392944%)" stop-opacity="1"/>
<stop offset="0.601562" stop-color="rgb(75.20752%, 7.141113%, 43.203735%)" stop-opacity="1"/>
<stop offset="0.605469" stop-color="rgb(75.015259%, 7.115173%, 43.029785%)" stop-opacity="1"/>
<stop offset="0.609375" stop-color="rgb(74.821472%, 7.087708%, 42.854309%)" stop-opacity="1"/>
<stop offset="0.617188" stop-color="rgb(74.639893%, 7.112122%, 42.750549%)" stop-opacity="1"/>
<stop offset="0.621094" stop-color="rgb(74.330139%, 7.173157%, 42.546082%)" stop-opacity="1"/>
<stop offset="0.625" stop-color="rgb(74.203491%, 7.209778%, 42.445374%)" stop-opacity="1"/>
<stop offset="0.628906" stop-color="rgb(74.076843%, 7.25708%, 42.338562%)" stop-opacity="1"/>
<stop offset="0.632812" stop-color="rgb(73.948669%, 7.304382%, 42.230225%)" stop-opacity="1"/>
<stop offset="0.636719" stop-color="rgb(73.670959%, 7.359314%, 42.080688%)" stop-opacity="1"/>
<stop offset="0.640625" stop-color="rgb(73.39325%, 7.415771%, 41.931152%)" stop-opacity="1"/>
<stop offset="0.644531" stop-color="rgb(73.18573%, 7.45697%, 41.777039%)" stop-opacity="1"/>
<stop offset="0.648438" stop-color="rgb(72.976685%, 7.496643%, 41.624451%)" stop-opacity="1"/>
<stop offset="0.652344" stop-color="rgb(72.796631%, 7.530212%, 41.470337%)" stop-opacity="1"/>
<stop offset="0.65625" stop-color="rgb(72.616577%, 7.563782%, 41.316223%)" stop-opacity="1"/>
<stop offset="0.660156" stop-color="rgb(72.438049%, 7.597351%, 41.163635%)" stop-opacity="1"/>
<stop offset="0.664062" stop-color="rgb(72.259521%, 7.63092%, 41.011047%)" stop-opacity="1"/>
<stop offset="0.671875" stop-color="rgb(72.079468%, 7.655334%, 40.898132%)" stop-opacity="1"/>
<stop offset="0.679687" stop-color="rgb(71.688843%, 7.711792%, 40.66925%)" stop-opacity="1"/>
<stop offset="0.683594" stop-color="rgb(71.206665%, 7.795715%, 40.406799%)" stop-opacity="1"/>
<stop offset="0.6875" stop-color="rgb(70.932007%, 7.849121%, 40.260315%)" stop-opacity="1"/>
<stop offset="0.691406" stop-color="rgb(70.741272%, 7.884216%, 40.110779%)" stop-opacity="1"/>
<stop offset="0.695312" stop-color="rgb(70.552063%, 7.919312%, 39.959717%)" stop-opacity="1"/>
<stop offset="0.699219" stop-color="rgb(70.339966%, 7.9422%, 39.807129%)" stop-opacity="1"/>
<stop offset="0.703125" stop-color="rgb(70.129395%, 7.963562%, 39.654541%)" stop-opacity="1"/>
<stop offset="0.707031" stop-color="rgb(69.868469%, 7.974243%, 39.500427%)" stop-opacity="1"/>
<stop offset="0.710938" stop-color="rgb(69.607544%, 7.981873%, 39.344788%)" stop-opacity="1"/>
<stop offset="0.71875" stop-color="rgb(69.425964%, 8.001709%, 39.242554%)" stop-opacity="1"/>
<stop offset="0.722656" stop-color="rgb(69.067383%, 8.045959%, 39.016724%)" stop-opacity="1"/>
<stop offset="0.726562" stop-color="rgb(68.890381%, 8.070374%, 38.894653%)" stop-opacity="1"/>
<stop offset="0.730469" stop-color="rgb(68.716431%, 8.100891%, 38.746643%)" stop-opacity="1"/>
<stop offset="0.734375" stop-color="rgb(68.539429%, 8.129883%, 38.597107%)" stop-opacity="1"/>
<stop offset="0.738281" stop-color="rgb(68.283081%, 8.148193%, 38.395691%)" stop-opacity="1"/>
<stop offset="0.742188" stop-color="rgb(68.026733%, 8.166504%, 38.192749%)" stop-opacity="1"/>
<stop offset="0.75" stop-color="rgb(67.814636%, 8.184814%, 38.049316%)" stop-opacity="1"/>
<stop offset="0.757812" stop-color="rgb(67.436218%, 8.218384%, 37.806702%)" stop-opacity="1"/>
<stop offset="0.765625" stop-color="rgb(67.189026%, 8.235168%, 37.606812%)" stop-opacity="1"/>
<stop offset="0.769531" stop-color="rgb(66.918945%, 8.242798%, 37.341309%)" stop-opacity="1"/>
<stop offset="0.773438" stop-color="rgb(66.729736%, 8.251953%, 37.179565%)" stop-opacity="1"/>
<stop offset="0.777344" stop-color="rgb(66.487122%, 8.268738%, 36.997986%)" stop-opacity="1"/>
<stop offset="0.78125" stop-color="rgb(66.246033%, 8.285522%, 36.816406%)" stop-opacity="1"/>
<stop offset="0.789062" stop-color="rgb(66.073608%, 8.302307%, 36.720276%)" stop-opacity="1"/>
<stop offset="0.792969" stop-color="rgb(65.673828%, 8.335876%, 36.459351%)" stop-opacity="1"/>
<stop offset="0.796875" stop-color="rgb(65.444946%, 8.351135%, 36.29303%)" stop-opacity="1"/>
<stop offset="0.800781" stop-color="rgb(65.214539%, 8.358765%, 36.106873%)" stop-opacity="1"/>
<stop offset="0.804688" stop-color="rgb(64.982605%, 8.366394%, 35.922241%)" stop-opacity="1"/>
<stop offset="0.808594" stop-color="rgb(64.820862%, 8.352661%, 35.769653%)" stop-opacity="1"/>
<stop offset="0.8125" stop-color="rgb(64.659119%, 8.337402%, 35.617065%)" stop-opacity="1"/>
<stop offset="0.816406" stop-color="rgb(64.491272%, 8.354187%, 35.473633%)" stop-opacity="1"/>
<stop offset="0.820313" stop-color="rgb(64.323425%, 8.370972%, 35.3302%)" stop-opacity="1"/>
<stop offset="0.824219" stop-color="rgb(64.129639%, 8.389282%, 35.188293%)" stop-opacity="1"/>
<stop offset="0.828125" stop-color="rgb(63.934326%, 8.409119%, 35.044861%)" stop-opacity="1"/>
<stop offset="0.832031" stop-color="rgb(63.684082%, 8.41217%, 34.899902%)" stop-opacity="1"/>
<stop offset="0.835938" stop-color="rgb(63.433838%, 8.415222%, 34.754944%)" stop-opacity="1"/>
<stop offset="0.839844" stop-color="rgb(63.18512%, 8.425903%, 34.571838%)" stop-opacity="1"/>
<stop offset="0.84375" stop-color="rgb(62.936401%, 8.436584%, 34.387207%)" stop-opacity="1"/>
<stop offset="0.847656" stop-color="rgb(62.722778%, 8.43811%, 34.213257%)" stop-opacity="1"/>
<stop offset="0.851562" stop-color="rgb(62.507629%, 8.43811%, 34.039307%)" stop-opacity="1"/>
<stop offset="0.855469" stop-color="rgb(62.347412%, 8.422852%, 33.889771%)" stop-opacity="1"/>
<stop offset="0.859375" stop-color="rgb(62.187195%, 8.406067%, 33.74176%)" stop-opacity="1"/>
<stop offset="0.875" stop-color="rgb(62.174988%, 8.406067%, 33.729553%)" stop-opacity="1"/>
<stop offset="1" stop-color="rgb(62.161255%, 8.404541%, 33.717346%)" stop-opacity="1"/>
</linearGradient>
</defs>
<g clip-path="url(#clip-0)">
<g clip-path="url(#clip-1)">
<path fill-rule="nonzero" fill="url(#linear-pattern-0)" d="M -1845.699219 1936.519531 L 1936.480469 -1845.699219 L 5718.699219 1936.480469 L 1936.519531 5718.699219 Z M -1845.699219 1936.519531 "/>
</g>
</g>
<path fill-rule="evenodd" fill="rgb(100%, 100%, 100%)" fill-opacity="1" d="M 778.300781 1320.398438 L 3094.601562 1320.398438 L 3094.601562 1128.800781 C 3094.601562 1086.800781 3060.398438 1052.5 3018.300781 1052.5 L 2815.800781 1052.5 L 2815.800781 1117 C 2815.800781 1170.601562 2772.101562 1214.199219 2718.601562 1214.199219 C 2664.898438 1214.199219 2621.398438 1170.5 2621.398438 1117 L 2621.398438 1052.5 L 2294.5 1052.5 L 2294.5 1117 C 2294.5 1170.601562 2250.800781 1214.199219 2197.300781 1214.199219 C 2143.699219 1214.199219 2100.101562 1170.5 2100.101562 1117 L 2100.101562 1052.5 L 1773.199219 1052.5 L 1773.199219 1117 C 1773.199219 1170.601562 1729.5 1214.199219 1676 1214.199219 C 1622.300781 1214.199219 1578.800781 1170.5 1578.800781 1117 L 1578.800781 1052.5 L 1251.898438 1052.5 L 1251.898438 1117 C 1251.898438 1170.601562 1208.199219 1214.199219 1154.699219 1214.199219 C 1101.101562 1214.199219 1057.5 1170.5 1057.5 1117 L 1057.5 1052.5 L 854.601562 1052.5 C 812.5 1052.5 778.300781 1086.699219 778.300781 1128.800781 L 778.300781 1320.398438 "/>
<path fill-rule="evenodd" fill="rgb(100%, 100%, 100%)" fill-opacity="1" d="M 2677 1024.699219 L 2677 1116.898438 C 2677 1139.800781 2695.699219 1158.601562 2718.699219 1158.601562 C 2741.699219 1158.601562 2760.398438 1139.898438 2760.398438 1117 L 2760.398438 932.5 C 2760.398438 909.5 2741.699219 890.898438 2718.699219 890.800781 C 2695.699219 890.800781 2677 909.5 2677 932.5 L 2677 1024.699219 "/>
<path fill-rule="evenodd" fill="rgb(100%, 100%, 100%)" fill-opacity="1" d="M 2155.5 1026.601562 L 2155.5 1117.101562 C 2155.5 1140 2174.199219 1158.800781 2197.199219 1158.800781 C 2220.101562 1158.800781 2238.898438 1140.101562 2238.898438 1117.199219 L 2238.898438 932.5 C 2238.898438 909.5 2220.199219 890.898438 2197.199219 890.800781 C 2174.300781 890.800781 2155.5 909.5 2155.5 932.5 L 2155.5 1023 C 2155.5 1023.601562 2155.601562 1024.199219 2155.601562 1024.699219 C 2155.601562 1025.199219 2155.601562 1025.898438 2155.5 1026.601562 "/>
<path fill-rule="evenodd" fill="rgb(100%, 100%, 100%)" fill-opacity="1" d="M 1634.199219 1024.699219 L 1634.199219 1116.898438 C 1634.199219 1139.800781 1652.898438 1158.601562 1675.898438 1158.601562 C 1698.898438 1158.601562 1717.601562 1139.898438 1717.601562 1117 L 1717.601562 932.5 C 1717.601562 909.5 1698.898438 890.898438 1675.898438 890.800781 C 1653 890.800781 1634.199219 909.5 1634.199219 932.5 L 1634.199219 1024.699219 "/>
<path fill-rule="evenodd" fill="rgb(100%, 100%, 100%)" fill-opacity="1" d="M 1112.800781 932.5 L 1112.800781 1117 C 1112.800781 1139.898438 1131.5 1158.699219 1154.5 1158.699219 C 1177.398438 1158.699219 1196.199219 1140 1196.199219 1117.101562 L 1196.199219 1026.601562 C 1196.199219 1026 1196.101562 1025.398438 1196.101562 1024.898438 C 1196.101562 1024.398438 1196.101562 1023.699219 1196.199219 1023.199219 L 1196.199219 932.601562 C 1196.199219 909.601562 1177.5 891 1154.5 890.898438 C 1131.398438 890.800781 1112.800781 909.5 1112.800781 932.5 "/>
<path fill-rule="evenodd" fill="rgb(100%, 100%, 100%)" fill-opacity="1" d="M 1734.699219 2341.699219 L 1908.800781 2167.601562 L 1908.800781 1943.398438 C 1908.800781 1928 1921.199219 1915.601562 1936.601562 1915.601562 C 1952 1915.601562 1964.398438 1928 1964.398438 1943.398438 L 1964.398438 2179.199219 C 1964.398438 2186.601562 1961.5 2193.601562 1956.300781 2198.800781 L 1774.101562 2381 C 1768.699219 2386.398438 1761.601562 2389.199219 1754.398438 2389.101562 C 1747.300781 2389.101562 1740.101562 2386.398438 1734.800781 2381 C 1723.800781 2370.101562 1723.800781 2352.5 1734.699219 2341.699219 Z M 1908.800781 1699.398438 C 1797.199219 1705.800781 1695.699219 1750.5 1617.300781 1820.398438 L 1650.5 1853.601562 C 1661.398438 1864.5 1661.398438 1882 1650.5 1892.898438 C 1645.101562 1898.300781 1638 1901 1630.898438 1901 C 1623.800781 1901 1616.601562 1898.300781 1611.300781 1892.898438 L 1578.101562 1859.699219 C 1508.101562 1938.199219 1463.5 2039.699219 1457.101562 2151.199219 L 1504.300781 2151.199219 C 1519.699219 2151.199219 1532.101562 2163.601562 1532.101562 2179 C 1532.101562 2194.398438 1519.699219 2206.800781 1504.300781 2206.800781 L 1457.101562 2206.800781 C 1463.5 2318.398438 1508.199219 2419.898438 1578.101562 2498.398438 L 1611.300781 2465.199219 C 1622.199219 2454.300781 1639.699219 2454.300781 1650.601562 2465.199219 C 1661.5 2476.101562 1661.5 2493.601562 1650.601562 2504.5 L 1617.398438 2537.699219 C 1695.898438 2607.699219 1797.398438 2652.300781 1908.898438 2658.699219 L 1908.898438 2611.5 C 1908.898438 2596.101562 1921.300781 2583.699219 1936.699219 2583.699219 C 1952.101562 2583.699219 1964.5 2596.101562 1964.5 2611.5 L 1964.5 2658.699219 C 2076.101562 2652.300781 2177.601562 2607.601562 2256 2537.699219 L 2222.800781 2504.5 C 2211.898438 2493.601562 2211.898438 2476.101562 2222.800781 2465.300781 C 2233.699219 2454.398438 2251.199219 2454.398438 2262.101562 2465.199219 L 2295.398438 2498.398438 C 2365.398438 2419.898438 2410 2318.398438 2416.398438 2206.800781 L 2369.199219 2206.800781 C 2353.800781 2206.800781 2341.398438 2194.398438 2341.398438 2179 C 2341.398438 2163.601562 2353.800781 2151.199219 2369.199219 2151.199219 L 2416.398438 2151.199219 C 2410 2039.601562 2365.300781 1938.101562 2295.398438 1859.699219 L 2262.101562 1893 C 2256.699219 1898.398438 2249.601562 1901.101562 2242.5 1901.101562 C 2235.398438 1901.101562 2228.199219 1898.398438 2222.898438 1893 C 2212 1882.101562 2212 1864.601562 2222.898438 1853.699219 L 2256.101562 1820.5 C 2177.601562 1750.5 2076.101562 1705.898438 1964.601562 1699.5 L 1964.601562 1746.699219 C 1964.601562 1762.101562 1952.199219 1774.5 1936.800781 1774.5 C 1921.398438 1774.5 1909 1762.101562 1909 1746.699219 L 1908.800781 1699.398438 "/>
<path fill-rule="evenodd" fill="rgb(100%, 100%, 100%)" fill-opacity="1" d="M 778.300781 1375.898438 L 778.300781 2905.898438 C 778.300781 2947.898438 812.5 2982.199219 854.601562 2982.199219 L 3018.398438 2982.199219 C 3060.5 2982.199219 3094.699219 2948 3094.699219 2905.898438 L 3094.699219 1375.898438 Z M 1771.898438 1566.101562 C 1495.199219 1640.199219 1302 1892.199219 1302 2179.101562 C 1302 2504.898438 1548.898438 2774.101562 1865.300781 2809.5 L 1854.699219 2799 C 1843.800781 2788.101562 1843.800781 2770.601562 1854.699219 2759.699219 C 1865.601562 2748.800781 1883.101562 2748.800781 1894 2759.699219 L 1955.898438 2821.601562 L 1956.101562 2821.800781 L 1956.5 2822.199219 C 1966.898438 2833.101562 1966.699219 2850.398438 1956.101562 2861.101562 L 1894 2923.199219 C 1888.601562 2928.601562 1881.5 2931.300781 1874.398438 2931.300781 C 1867.300781 2931.300781 1860.101562 2928.601562 1854.800781 2923.199219 C 1843.898438 2912.300781 1843.898438 2894.800781 1854.800781 2883.898438 L 1872.5 2866.199219 C 1521.898438 2833.800781 1246.5 2538.101562 1246.5 2179.199219 C 1246.5 1867.199219 1456.601562 1593.101562 1757.601562 1512.5 C 1772.398438 1508.601562 1787.699219 1517.398438 1791.601562 1532.199219 C 1795.5 1546.800781 1786.699219 1562.101562 1771.898438 1566.101562 Z M 2312.5 2560.898438 C 2216.101562 2655.898438 2083.898438 2714.800781 1938.199219 2715.300781 C 1937.601562 2715.300781 1937 2715.398438 1936.5 2715.398438 C 1935.898438 2715.398438 1935.199219 2715.398438 1934.5 2715.300781 C 1789 2714.699219 1656.898438 2656 1560.5 2561 C 1559.398438 2560.199219 1558.300781 2559.300781 1557.300781 2558.199219 C 1556.300781 2557.199219 1555.398438 2556.199219 1554.5 2555 C 1459.199219 2458.199219 1400.199219 2325.398438 1400.199219 2179.101562 C 1400.199219 2032.800781 1459.101562 1899.898438 1554.601562 1803.101562 C 1555.398438 1802 1556.300781 1801 1557.300781 1800 C 1558.300781 1799 1559.300781 1798.101562 1560.398438 1797.300781 C 1657.199219 1702 1790 1642.898438 1936.300781 1642.898438 C 2082.601562 1642.898438 2215.398438 1701.800781 2312.199219 1797.300781 C 2313.300781 1798.101562 2314.300781 1799 2315.398438 1800 C 2316.398438 1801 2317.300781 1802 2318.101562 1803.199219 C 2413.398438 1900 2472.5 2032.800781 2472.5 2179.101562 C 2472.5 2325.398438 2413.601562 2458.199219 2318.199219 2555 C 2317.398438 2556.101562 2316.5 2557.199219 2315.398438 2558.199219 C 2314.601562 2559.101562 2313.601562 2560.101562 2312.5 2560.898438 Z M 2626.699219 2179.101562 C 2626.699219 2491.101562 2416.5 2765.199219 2115.601562 2845.699219 C 2113.199219 2846.398438 2110.800781 2846.601562 2108.398438 2846.601562 C 2096.101562 2846.601562 2084.898438 2838.398438 2081.5 2826 C 2077.601562 2811.199219 2086.300781 2795.898438 2101.199219 2792 C 2377.898438 2717.898438 2571.101562 2465.898438 2571.101562 2179.101562 C 2571.101562 1853.199219 2324.199219 1584 2007.601562 1548.601562 L 2018.199219 1559.199219 C 2029.101562 1570.101562 2029.101562 1587.601562 2018.199219 1598.5 C 2012.800781 1603.898438 2005.699219 1606.601562 1998.601562 1606.601562 C 1991.5 1606.601562 1984.300781 1603.898438 1979 1598.5 L 1916.898438 1536.398438 C 1914.398438 1533.898438 1912.398438 1530.898438 1911 1527.699219 L 1910.898438 1527.5 L 1910.699219 1526.898438 L 1910.699219 1526.800781 L 1910.601562 1526.601562 L 1910.398438 1526.300781 L 1910.199219 1526 L 1910.101562 1525.699219 L 1910 1525.398438 L 1909.898438 1525.101562 L 1909.601562 1524.199219 L 1909.5 1523.898438 C 1909.300781 1523.101562 1909.101562 1522.300781 1909 1521.5 L 1908.898438 1521.199219 L 1908.800781 1520.898438 L 1908.699219 1520.601562 L 1908.601562 1520.300781 L 1908.5 1520 L 1908.5 1514.300781 C 1909.101562 1507.398438 1912.300781 1501.398438 1917 1496.898438 L 1978.5 1435.398438 C 1989.398438 1424.5 2006.898438 1424.5 2017.800781 1435.398438 C 2028.699219 1446.300781 2028.699219 1463.800781 2017.800781 1474.699219 L 2000.199219 1492.300781 C 2351.199219 1524.398438 2626.699219 1820.199219 2626.699219 2179.101562 "/>
</svg>
